<svg width="18" height="17" viewBox="0 0 18 17" fill="none" xmlns="http://www.w3.org/2000/svg">
<path d="M15.71 11.29C15.5217 11.1017 15.2663 10.9959 15 10.9959C14.7337 10.9959 14.4783 11.1017 14.29 11.29C14.1017 11.4783 13.9959 11.7337 13.9959 12C13.9959 12.2663 14.1017 12.5217 14.29 12.71L14.58 13H13C11.9391 13 10.9217 12.5786 10.1716 11.8284C9.42143 11.0783 9 10.0609 9 9C9 7.93914 9.42143 6.92172 10.1716 6.17158C10.9217 5.42143 11.9391 5 13 5H14.59L14.29 5.29C14.1963 5.38297 14.1219 5.49357 14.0711 5.61543C14.0203 5.73728 13.9942 5.86799 13.9942 6C13.9942 6.13201 14.0203 6.26272 14.0711 6.38458C14.1219 6.50644 14.1963 6.61704 14.29 6.71C14.3834 6.80268 14.4943 6.87601 14.6161 6.92577C14.7379 6.97554 14.8684 7.00076 15 7C15.1316 7.00076 15.2621 6.97554 15.3839 6.92577C15.5057 6.87601 15.6166 6.80268 15.71 6.71L17.71 4.71C17.8027 4.61656 17.876 4.50575 17.9258 4.38391C17.9755 4.26207 18.0008 4.13161 18 4C18.0008 3.8684 17.9755 3.73793 17.9258 3.6161C17.876 3.49426 17.8027 3.38344 17.71 3.29L15.71 1.29C15.6168 1.19676 15.5061 1.1228 15.3842 1.07234C15.2624 1.02188 15.1319 0.995911 15 0.995911C14.7337 0.995911 14.4783 1.1017 14.29 1.29C14.1017 1.47831 13.9959 1.7337 13.9959 2C13.9959 2.2663 14.1017 2.5217 14.29 2.71L14.58 3H13C12.0093 3.00073 11.0342 3.24677 10.1617 3.71616C9.28921 4.18555 8.54655 4.86368 8 5.69C7.45345 4.86368 6.71079 4.18555 5.83832 3.71616C4.96585 3.24677 3.99072 3.00073 3 3H1C0.734784 3 0.48043 3.10536 0.292893 3.2929C0.105357 3.48043 0 3.73479 0 4C0 4.26522 0.105357 4.51957 0.292893 4.70711C0.48043 4.89465 0.734784 5 1 5H3C4.06087 5 5.07828 5.42143 5.82843 6.17158C6.57857 6.92172 7 7.93914 7 9C7 10.0609 6.57857 11.0783 5.82843 11.8284C5.07828 12.5786 4.06087 13 3 13H1C0.734784 13 0.48043 13.1054 0.292893 13.2929C0.105357 13.4804 0 13.7348 0 14C0 14.2652 0.105357 14.5196 0.292893 14.7071C0.48043 14.8946 0.734784 15 1 15H3C3.99072 14.9993 4.96585 14.7532 5.83832 14.2838C6.71079 13.8145 7.45345 13.1363 8 12.31C8.54655 13.1363 9.28921 13.8145 10.1617 14.2838C11.0342 14.7532 12.0093 14.9993 13 15H14.59L14.29 15.29C14.1963 15.383 14.1219 15.4936 14.0711 15.6154C14.0203 15.7373 13.9942 15.868 13.9942 16C13.9942 16.132 14.0203 16.2627 14.0711 16.3846C14.1219 16.5064 14.1963 16.617 14.29 16.71C14.3834 16.8027 14.4943 16.876 14.6161 16.9258C14.7379 16.9755 14.8684 17.0008 15 17C15.1316 17.0008 15.2621 16.9755 15.3839 16.9258C15.5057 16.876 15.6166 16.8027 15.71 16.71L17.71 14.71C17.8027 14.6166 17.876 14.5057 17.9258 14.3839C17.9755 14.2621 18.0008 14.1316 18 14C18.0008 13.8684 17.9755 13.7379 17.9258 13.6161C17.876 13.4943 17.8027 13.3834 17.71 13.29L15.71 11.29Z" fill="#F24E1E"/>
</svg>
